<svg xmlns="http://www.w3.org/2000/svg" viewBox="0 0 512 512">
  <defs>
    <linearGradient id="cw-neon" x1="124" y1="104" x2="397" y2="408" gradientUnits="userSpaceOnUse">
      <stop stop-color="#e9d5ff"/>
      <stop offset=".38" stop-color="#c084fc"/>
      <stop offset="1" stop-color="#7c3aed"/>
    </linearGradient>
    <linearGradient id="cw-edge" x1="82" y1="65" x2="432" y2="451" gradientUnits="userSpaceOnUse">
      <stop stop-color="#d8b4fe" stop-opacity=".85"/>
      <stop offset="1" stop-color="#7e22ce" stop-opacity=".2"/>
    </linearGradient>
    <filter id="cw-glow" x="-35%" y="-35%" width="170%" height="170%">
      <feGaussianBlur stdDeviation="13" result="glow"/>
      <feMerge><feMergeNode in="glow"/><feMergeNode in="SourceGraphic"/></feMerge>
    </filter>
  </defs>
  <path d="M160 35h192l125 125v192L352 477H160L35 352V160L160 35Z" fill="#09090b"/>
  <path d="M160 45h188l119 119v184L348 467H164L45 348V164L164 45Z" fill="none" stroke="url(#cw-edge)" stroke-width="9"/>
  <path d="M323 151a130 130 0 1 0 0 210" fill="none" stroke="url(#cw-neon)" stroke-linecap="round" stroke-width="45" filter="url(#cw-glow)"/>
  <path d="m207 239 35 104 39-72 39 72 37-104" fill="none" stroke="url(#cw-neon)" stroke-linecap="round" stroke-linejoin="round" stroke-width="31" filter="url(#cw-glow)"/>
  <path d="M323 151a130 130 0 1 0 0 210" fill="none" stroke="#fff" stroke-linecap="round" stroke-opacity=".26" stroke-width="5"/>
</svg>
